<?xml version="1.0" standalone="no"?>
<svg viewBox="0 0 200 200" xmlns="http://www.w3.org/2000/svg">
  <path fill="#A55D07" d="M35.5,-62.7C44.3,-56.4,48.7,-43.5,47.6,-32C46.4,-20.4,39.9,-10.2,45.1,3C50.3,16.2,67.3,32.5,64.5,37.2C61.6,41.9,39,35.1,24.9,35.1C10.9,35.1,5.4,41.9,1.2,39.8C-3.1,37.8,-6.2,26.9,-20.6,27.1C-34.9,27.3,-60.6,38.6,-61.8,35.9C-63,33.2,-39.7,16.6,-33.6,3.5C-27.5,-9.5,-38.5,-19,-37.6,-22.3C-36.7,-25.5,-23.9,-22.4,-15.7,-29.1C-7.4,-35.7,-3.7,-52.1,4.8,-60.5C13.3,-68.8,26.7,-69.1,35.5,-62.7Z" transform="translate(100 100)" />
</svg>
