<?xml version="1.0" encoding="UTF-8" standalone="no"?>
<!-- Created with Inkscape (http://www.inkscape.org/) -->

<svg
   width="223.38504"
   height="214.54433"
   viewBox="0 0 2.2338504 2.1454433"
   version="1.1"
   id="svg1"
   inkscape:export-filename="cara03.svg"
   inkscape:export-xdpi="27.965658"
   inkscape:export-ydpi="27.965658"
   sodipodi:docname="cara03.svg"
   inkscape:version="1.3 (0e150ed, 2023-07-21)"
   xmlns:inkscape="http://www.inkscape.org/namespaces/inkscape"
   xmlns:sodipodi="http://sodipodi.sourceforge.net/DTD/sodipodi-0.dtd"
   xmlns="http://www.w3.org/2000/svg"
   xmlns:svg="http://www.w3.org/2000/svg">
  <sodipodi:namedview
     id="namedview1"
     pagecolor="#ffffff"
     bordercolor="#cccccc"
     borderopacity="1"
     inkscape:showpageshadow="0"
     inkscape:pageopacity="1"
     inkscape:pagecheckerboard="0"
     inkscape:deskcolor="#d1d1d1"
     inkscape:document-units="mm"
     inkscape:export-bgcolor="#ffffff00"
     inkscape:clip-to-page="true"
     inkscape:zoom="2.4471537"
     inkscape:cx="111.96681"
     inkscape:cy="116.87047"
     inkscape:window-width="1376"
     inkscape:window-height="1023"
     inkscape:window-x="0"
     inkscape:window-y="25"
     inkscape:window-maximized="0"
     inkscape:current-layer="layer1" />
  <defs
     id="defs1">
    <inkscape:path-effect
       effect="gears"
       id="path-effect58"
       is_visible="false"
       lpeversion="1"
       teeth="10"
       phi="5"
       min_radius="5" />
    <inkscape:path-effect
       effect="slice"
       start_point="1.2032914,0.20086628"
       end_point="1.2032914,2.1507537"
       center_point="1.2032914,1.17581"
       id="path-effect56"
       is_visible="false"
       lpeversion="1.2"
       lpesatellites=""
       allow_transforms="true" />
    <inkscape:path-effect
       effect="sketch"
       id="path-effect54"
       is_visible="false"
       lpeversion="1"
       nbiter_approxstrokes="2"
       parallel_offset="4.5;2139095038"
       strokelength="100"
       strokelength_rdm="0.3;1"
       strokeoverlap="0.071428571"
       strokeoverlap_rdm="0.3;1"
       ends_tolerance="0.1;1"
       tremble_size="5;1"
       tremble_frequency="1"
       nbtangents="5"
       tgt_places_rdmness="1;1"
       tgtlength="80"
       tgtlength_rdm="0.3;1"
       tgtscale="10" />
    <inkscape:path-effect
       effect="knot"
       id="path-effect52"
       is_visible="false"
       lpeversion="1"
       switcher_size="15"
       interruption_width="3"
       prop_to_stroke_width="true"
       add_stroke_width="inkscape_1.0_and_up"
       both="false"
       inverse_width="false"
       add_other_stroke_width="inkscape_1.0_and_up"
       crossing_points_vector="" />
    <linearGradient
       id="swatch13"
       inkscape:swatch="solid">
      <stop
         style="stop-color:#000000;stop-opacity:0.19209002;"
         offset="0"
         id="stop13" />
    </linearGradient>
  </defs>
  <g
     inkscape:label="Capa 1"
     inkscape:groupmode="layer"
     id="layer1"
     style="display:inline"
     transform="translate(-0.10452381,-0.15458617)">
    <g
       id="g51"
       transform="matrix(0.49481078,0,0,0.47398357,0.73712945,0.6756533)"
       style="display:inline;fill:#ffa268;fill-opacity:0.901961"
       inkscape:label="cara03">
      <path
         style="display:inline;opacity:0.9;fill:#ffffff;fill-opacity:1;stroke:#009e00;stroke-width:0.04;stroke-linecap:round;stroke-linejoin:round;stroke-dasharray:none;stroke-opacity:1"
         id="path37"
         d="M 2.2057165,1.17581 A 1.0024251,0.9749437 0 0 1 1.2032914,2.1507537 1.0024251,0.9749437 0 0 1 0.20086634,1.17581 1.0024251,0.9749437 0 0 1 1.2032914,0.20086628 1.0024251,0.9749437 0 0 1 2.2057165,1.17581 Z"
         sodipodi:type="arc"
         sodipodi:ry="0.9749437"
         sodipodi:rx="1.0024251"
         sodipodi:cy="1.17581"
         sodipodi:cx="1.2032914"
         inkscape:path-effect="#path-effect52;#path-effect54;#path-effect56;#path-effect58"
         transform="matrix(1.9937187,0,0,2.1100677,-1.366547,-1.360277)" />
      <g
         id="g58"
         transform="matrix(1.0343804,0,0,0.92698378,-0.40352987,0.09359083)"
         style="display:inline">
        <path
           id="path214"
           d="M 1.7484609,0.86913413 C 1.7771275,1.0060671 1.9115271,1.0938002 2.0484601,1.0650003 2.1853931,1.0363337 2.2731262,0.90206738 2.2443263,0.76513439 2.2156597,0.6282014 2.0813934,0.54046829 1.9444604,0.56913488 1.8075274,0.59793481 1.7197943,0.73220114 1.7484609,0.86913413"
           style="fill:#1d1d1b;fill-opacity:1;fill-rule:nonzero;stroke:none;stroke-width:0.00133333" />
        <path
           id="path215"
           d="m 2.1077933,0.09726939 c -0.028133,0 -0.056266,0.0028 -0.084533,0.0088 C 1.7483276,0.16366923 1.5833946,0.49073508 1.6556611,0.83513421 1.7277943,1.1794 2.0103269,1.4127328 2.2852595,1.3549996 2.5601922,1.2973997 2.7251251,0.97033388 2.652992,0.62593474 v 0 C 2.5881921,0.31686884 2.353926,0.09726939 2.1077933,0.09726939 Z m 0.093466,1.33319671 c -0.2773327,0 -0.5394654,-0.2411994 -0.6109319,-0.58173192 C 1.5105948,0.46846847 1.6987277,0.10593604 2.0096602,0.0407362 2.3205928,-0.02446364 2.6384587,0.23193572 2.7181918,0.61220144 v 0 c 0.079733,0.38039905 -0.1082664,0.74293146 -0.419199,0.80813136 -0.032666,0.0068 -0.065333,0.010133 -0.097733,0.010133"
           style="fill:#1d1d1b;fill-opacity:1;fill-rule:nonzero;stroke:none;stroke-width:0.00133333" />
        <path
           id="path216"
           d="m 1.8121941,0.76046774 c 0.010533,0.0503999 0.06,0.0826665 0.1103997,0.0721331 0.050533,-0.0105333 0.0828,-0.0599998 0.072267,-0.11053306 -0.010667,-0.0503999 -0.060133,-0.0827998 -0.1105331,-0.0721331 -0.0504,0.0105333 -0.0828,0.0599998 -0.072133,0.11053306"
           style="fill:#ffffff;fill-opacity:1;fill-rule:nonzero;stroke:none;stroke-width:0.00133333" />
        <path
           id="path217"
           d="M 1.0080627,0.95566725 C 0.97939613,1.0926002 0.84512983,1.1803334 0.70819683,1.1516668 c -0.136933,-0.0288 -0.2246661,-0.1630663 -0.1959995,-0.29999929 0.0288,-0.13693299 0.1630663,-0.22466611 0.2999993,-0.19586618 0.136933,0.0286666 0.22466607,0.16293293 0.19586607,0.29986592"
           style="fill:#1d1d1b;fill-opacity:1;fill-rule:nonzero;stroke:none;stroke-width:0.00133333" />
        <path
           id="path218"
           d="m 0.64833033,0.18380251 c -0.1047997,0 -0.2099995,0.0397332 -0.3031992,0.11573304 -0.1205331,0.0982664 -0.2062662,0.24493273 -0.2414661,0.41306564 v 0 c -0.035333,0.16799958 -0.015733,0.33679911 0.0552,0.47519881 0.0696,0.1359997 0.1805328,0.2261328 0.3123992,0.253866 0.1318663,0.0276 0.2697326,-0.0104 0.3881323,-0.106933 0.120533,-0.098266 0.20626607,-0.2449328 0.24159927,-0.41306567 0.0352,-0.16799958 0.0156,-0.33679916 -0.0552,-0.47519881 C 0.9760626,0.31046886 0.86512963,0.22020242 0.73326323,0.19260249 c -0.028133,-0.005867 -0.056533,-0.0088 -0.0849329,-0.0088 z M 0.55659723,1.5171325 c -0.033067,0 -0.066133,-0.00333 -0.098933,-0.010267 C 0.30566453,1.4749993 0.17846483,1.3724662 0.09953173,1.2181999 0.02166523,1.0662003 -6.8072396e-5,0.88180076 0.03833183,0.69886789 v 0 c 0.0384,-0.18293288 0.1323997,-0.34319914 0.264666,-0.45106554 0.1342664,-0.10946639 0.2919993,-0.15226629 0.4439989,-0.1203997 0.1518663,0.0318666 0.27906597,0.13439967 0.35813247,0.28866595 0.077733,0.15186628 0.099466,0.33639915 0.061066,0.51933203 C 1.1277958,1.1183335 1.0339293,1.2784665 0.90166303,1.3863328 c -0.1053331,0.086 -0.2250661,0.1307997 -0.3450658,0.1307997"
           style="fill:#1d1d1b;fill-opacity:1;fill-rule:nonzero;stroke:none;stroke-width:0.00133333" />
        <path
           id="path219"
           d="m 0.94446293,0.84700085 c -0.010667,0.0503999 -0.060133,0.0827998 -0.1105331,0.0721332 -0.0504,-0.0105333 -0.0828,-0.0599998 -0.072266,-0.11039973 0.010667,-0.0505332 0.060133,-0.0827998 0.110533,-0.0722665 0.050533,0.0106666 0.0828,0.0601332 0.072267,0.11053305"
           style="fill:#ffffff;fill-opacity:1;fill-rule:nonzero;stroke:none;stroke-width:0.00133333" />
        <path
           id="path220"
           d="m 1.0631293,-0.38219607 c -0.19826617,0.0723998 -0.38293237,0.18706619 -0.53839867,0.33586582 -0.013333,0.0128 -0.0344,0.0124 -0.0472,-9.3333e-4 -0.012,-0.0125333 -0.012133,-0.0321333 -0.00107,-0.0449332 0.1470663,-0.16933291 0.3307991,-0.30946589 0.53719857,-0.40719898 l 4e-4,-1.3333e-4 c 0.031733,-0.0150666 0.0696,-0.001467 0.084666,0.0302666 0.015067,0.0317333 0.00147,0.0697332 -0.030267,0.0847998 -0.00173,8e-4 -0.0036,0.0016 -0.00533,0.002267"
           style="fill:#1d1d1b;fill-opacity:1;fill-rule:nonzero;stroke:none;stroke-width:0.00133333" />
        <path
           id="path221"
           d="m 1.8248607,-0.50272911 c 0.0684,0.0189333 0.135333,0.0431999 0.1995995,0.0726665 0.064267,0.0293333 0.1258663,0.0641332 0.1842662,0.10333307 0.1167997,0.0783998 0.2195995,0.17546623 0.3045326,0.28546596 0.0112,0.0145333 0.00853,0.0354666 -0.006,0.0467999 -0.013867,0.0106666 -0.0336,0.0088 -0.0452,-0.004 l -1.333e-4,-2.6667e-4 c -0.088133,-0.0979998 -0.1911996,-0.18146621 -0.3043993,-0.24573272 -0.056533,-0.0321333 -0.1154663,-0.0597332 -0.1761329,-0.0821331 -0.060533,-0.0225333 -0.1227997,-0.0399999 -0.1858662,-0.0523999 -0.034533,-0.0068 -0.056933,-0.0402666 -0.050133,-0.0746665 0.0068,-0.0345332 0.040267,-0.0569332 0.074667,-0.0501332 0.0016,2.6666e-4 0.00307,6.6666e-4 0.00453,0.001067 h 2.667e-4"
           style="fill:#1d1d1b;fill-opacity:1;fill-rule:nonzero;stroke:none;stroke-width:0.00133333" />
        <path
           id="path222"
           d="m -0.03473467,1.7953985 c -0.015467,0 -0.029333,-0.0108 -0.032667,-0.026667 -0.00827,-0.0396 -0.0156,-0.118533 0.027867,-0.2010662 0.0372,-0.0708 0.094133,-0.1086664 0.1247996,-0.124933 0.016267,-0.00867 0.036533,-0.00253 0.045067,0.013733 0.00867,0.016267 0.00253,0.036533 -0.013733,0.045067 -0.023867,0.0128 -0.068267,0.042266 -0.0972,0.0972 -0.034933,0.0664 -0.026667,0.1315997 -0.021467,0.156533 0.00373,0.018 -0.00787,0.0356 -0.025867,0.039333 -0.00227,5.333e-4 -0.00453,8e-4 -0.0068,8e-4"
           style="fill:#1d1d1b;fill-opacity:1;fill-rule:nonzero;stroke:none;stroke-width:0.00133333" />
        <path
           id="path223"
           d="m 2.8575248,1.6720655 c -0.016533,0 -0.0308,-0.0124 -0.033067,-0.0292 -0.00747,-0.059466 -0.0268,-0.1151997 -0.0572,-0.1658662 -0.0216,-0.036133 -0.048533,-0.0688 -0.08,-0.097333 -0.013733,-0.012267 -0.0148,-0.033333 -0.0024,-0.047067 0.012267,-0.0136 0.033333,-0.014667 0.047067,-0.0024 0.0364,0.0328 0.0676,0.070666 0.092533,0.112533 0.0352,0.058533 0.057467,0.1230664 0.066133,0.1917329 0.0024,0.018267 -0.010533,0.034933 -0.0288,0.0372 -0.00147,2.666e-4 -0.0028,4e-4 -0.00427,4e-4"
           style="fill:#1d1d1b;fill-opacity:1;fill-rule:nonzero;stroke:none;stroke-width:0.00133333" />
        <path
           id="path224"
           d="M 2.628592,1.5591324 C 2.4229925,1.7333986 2.3008595,1.8035318 2.2043264,1.8783316 c -0.0628,0.048667 -0.2673327,0.2173328 -0.3850657,0.4865321 0,0 -0.2203994,0.4926655 -0.2954659,0.5574653 -0.013733,0.011733 -0.029867,0.0216 -0.049733,0.030133 -0.024667,0.010533 -0.0516,0.017467 -0.080133,0.0212 C 1.2052622,2.9981955 0.94059623,2.8800624 0.72673013,2.6895296 0.59699713,2.5737965 0.48606403,2.4315302 0.42233093,2.278464 0.33299783,2.0640645 0.30179783,1.9096649 0.13459833,1.6745988 c -0.0392,-0.055333 -0.0752,-0.0984 -0.1001331,-0.1266664 0.0076,-0.010133 0.015067,-0.0204 0.022667,-0.030666 0.1275997,0.051333 0.3006659,0.112533 0.5107987,0.1630662 0.090666,0.021733 0.3122659,0.074 0.57533187,0.094533 0.0928,0.00733 0.1909329,0.010667 0.2901326,0.00733 0.006,-2.666e-4 0.012,-4e-4 0.018,-6.666e-4 0.0044,-1.334e-4 0.0088,-4e-4 0.013333,-6.667e-4 0.120933,-0.0056 0.2363994,-0.0208 0.3453324,-0.042 0.5530653,-0.1075997 0.9323977,-0.3689324 0.9567976,-0.3217325 0.00333,0.00653 0.002,0.0232 -0.1382663,0.1419996"
           style="fill:#1d1d1b;fill-opacity:1;fill-rule:nonzero;stroke:none;stroke-width:0.00133333" />
        <path
           id="path225"
           d="M 1.451395,1.7815319 V 2.1581976 H 1.3304619 c -0.1223997,0 -0.2215994,-0.0992 -0.2215994,-0.2214661 V 1.7748652 h 0.0344 c 0.0928,0.00733 0.1909329,0.010667 0.2901326,0.00733 0.006,-2.666e-4 0.012,-4e-4 0.018,-6.666e-4"
           style="fill:#ffffff;fill-opacity:1;fill-rule:nonzero;stroke:none;stroke-width:0.00133333" />
        <path
           id="path226"
           d="m 1.8100607,1.7388653 -0.0028,0.1978662 c 0,0.1222663 -0.0992,0.2214661 -0.2215994,0.2214661 H 1.4647283 V 1.7808652 c 0.120933,-0.0056 0.2363994,-0.0208 0.3453324,-0.042"
           style="fill:#ffffff;fill-opacity:1;fill-rule:nonzero;stroke:none;stroke-width:0.00133333" />
        <path
           id="path227"
           d="m 1.3773951,2.9337956 c -0.1779995,0.0232 -0.42773217,-0.088266 -0.62946497,-0.2679993 0.044666,-0.1493329 0.0988,-0.1931995 0.1431996,-0.2027995 0.053066,-0.011467 0.084133,0.028 0.17026617,0.018533 0.076933,-0.0084 0.086,-0.043733 0.1391997,-0.043333 0.092533,8e-4 0.1726662,0.1082664 0.2042661,0.1887995 0.0576,0.146933 -0.0148,0.2837326 -0.027467,0.3067992"
           style="fill:#e91b23;fill-opacity:1;fill-rule:nonzero;stroke:none;stroke-width:0.00133333" />
      </g>
    </g>
  </g>
</svg>
