<?xml version="1.0" encoding="UTF-8" standalone="no"?>
<!-- Created with Inkscape (http://www.inkscape.org/) -->

<svg
   width="224.4326"
   height="213.78857"
   viewBox="0 0 2.244326 2.1378859"
   version="1.1"
   id="svg1"
   sodipodi:docname="cara01.svg"
   inkscape:export-filename="cara01.svg"
   inkscape:export-xdpi="96"
   inkscape:export-ydpi="96"
   inkscape:version="1.3 (0e150ed, 2023-07-21)"
   xmlns:inkscape="http://www.inkscape.org/namespaces/inkscape"
   xmlns:sodipodi="http://sodipodi.sourceforge.net/DTD/sodipodi-0.dtd"
   xmlns="http://www.w3.org/2000/svg"
   xmlns:svg="http://www.w3.org/2000/svg">
  <sodipodi:namedview
     id="namedview1"
     pagecolor="#ffffff"
     bordercolor="#cccccc"
     borderopacity="1"
     inkscape:showpageshadow="0"
     inkscape:pageopacity="1"
     inkscape:pagecheckerboard="0"
     inkscape:deskcolor="#d1d1d1"
     inkscape:document-units="mm"
     inkscape:export-bgcolor="#ffffff00"
     inkscape:clip-to-page="true"
     inkscape:zoom="1.5540715"
     inkscape:cx="184.03271"
     inkscape:cy="90.729415"
     inkscape:window-width="1824"
     inkscape:window-height="981"
     inkscape:window-x="0"
     inkscape:window-y="25"
     inkscape:window-maximized="0"
     inkscape:current-layer="layer1" />
  <defs
     id="defs1">
    <linearGradient
       id="swatch13"
       inkscape:swatch="solid">
      <stop
         style="stop-color:#000000;stop-opacity:0.19209002;"
         offset="0"
         id="stop13" />
    </linearGradient>
    <inkscape:path-effect
       effect="gears"
       id="path-effect13"
       is_visible="false"
       lpeversion="1"
       teeth="10"
       phi="5"
       min_radius="5" />
    <inkscape:path-effect
       effect="slice"
       start_point="1.2032914,0.20086628"
       end_point="1.2032914,2.1507537"
       center_point="1.2032914,1.17581"
       id="path-effect12"
       is_visible="false"
       lpeversion="1.2"
       lpesatellites="#path12"
       allow_transforms="true" />
    <inkscape:path-effect
       effect="sketch"
       id="path-effect11"
       is_visible="false"
       lpeversion="1"
       nbiter_approxstrokes="2"
       parallel_offset="4.5;2139095038"
       strokelength="100"
       strokelength_rdm="0.3;1"
       strokeoverlap="0.071428571"
       strokeoverlap_rdm="0.3;1"
       ends_tolerance="0.1;1"
       tremble_size="5;1"
       tremble_frequency="1"
       nbtangents="5"
       tgt_places_rdmness="1;1"
       tgtlength="80"
       tgtlength_rdm="0.3;1"
       tgtscale="10" />
    <inkscape:path-effect
       effect="knot"
       id="path-effect10"
       is_visible="false"
       lpeversion="1"
       switcher_size="15"
       interruption_width="3"
       prop_to_stroke_width="true"
       add_stroke_width="inkscape_1.0_and_up"
       both="false"
       inverse_width="false"
       add_other_stroke_width="inkscape_1.0_and_up"
       crossing_points_vector="" />
  </defs>
  <g
     inkscape:label="Capa 1"
     inkscape:groupmode="layer"
     id="layer1"
     transform="translate(-0.08434568,-0.11008447)">
    <path
       style="opacity:0.9;fill:#ffffff;fill-opacity:1;stroke:#ff574b;stroke-width:0.04;stroke-linecap:round;stroke-linejoin:round;stroke-dasharray:none;stroke-opacity:1"
       id="path10"
       d="M 2.2057165,1.17581 A 1.0024251,0.9749437 0 0 1 1.2032914,2.1507537 1.0024251,0.9749437 0 0 1 0.20086634,1.17581 1.0024251,0.9749437 0 0 1 1.2032914,0.20086628 1.0024251,0.9749437 0 0 1 2.2057165,1.17581 Z"
       sodipodi:type="arc"
       sodipodi:ry="0.9749437"
       sodipodi:rx="1.0024251"
       sodipodi:cy="1.17581"
       sodipodi:cx="1.2032914"
       inkscape:path-effect="#path-effect10;#path-effect11;#path-effect12;#path-effect13" />
    <g
       id="g13"
       transform="matrix(0.50157528,0,0,0.47391845,0.6854262,0.64466038)"
       style="fill:#ffa268;fill-opacity:0.901961">
      <path
         id="path3"
         d="m 2.2940431,1.5745128 c 0.00749,-0.039467 0.01928,-0.074 0.031453,-0.1079998 0.012427,-0.033867 0.025773,-0.0664 0.04,-0.098666 0.01424,-0.032267 0.029427,-0.064 0.046107,-0.096 0.016973,-0.031733 0.034773,-0.063733 0.05904,-0.095733 0.00827,0.039333 0.00661,0.077866 6.933e-4,0.1154664 -0.00619,0.0376 -0.017293,0.074133 -0.032733,0.1086663 -0.01536,0.034533 -0.03492,0.067333 -0.058573,0.0972 -0.023907,0.0296 -0.051373,0.056666 -0.085986,0.077066"
         style="fill:#000000;fill-opacity:0.901961;fill-rule:nonzero;stroke:none;stroke-width:0.00133333" />
      <path
         id="path4"
         d="m 0.53379416,1.0659807 c 0,0.1399997 -0.11341305,0.2533327 -0.2533327,0.2533327 -0.13990631,0 -0.2533327,-0.113333 -0.2533327,-0.2533327 0,-0.1398663 0.11342639,-0.25333268 0.2533327,-0.25333268 0.13991965,0 0.2533327,0.11346638 0.2533327,0.25333268"
         style="fill:#000000;fill-opacity:0.901961;fill-rule:nonzero;stroke:none;stroke-width:0.00133333" />
      <path
         id="path5"
         d="m 0.20618165,0.31838258 c -0.28094597,0 -0.50951873,0.28626596 -0.50951873,0.63813174 0,0.35186578 0.22857276,0.63799838 0.50951873,0.63799838 0.28094596,0 0.50951872,-0.2861326 0.50951872,-0.63799838 0,-0.35186579 -0.22857276,-0.63813174 -0.50951872,-0.63813174 z m 0,1.34279662 c -0.31771921,0 -0.57618523,-0.3161325 -0.57618523,-0.70466488 0,-0.38866569 0.25846602,-0.70479824 0.57618523,-0.70479824 0.3177192,0 0.57618522,0.31613255 0.57618522,0.70479824 0,0.38853238 -0.25846602,0.70466488 -0.57618522,0.70466488"
         style="fill:#000000;fill-opacity:0.901961;fill-rule:nonzero;stroke:none;stroke-width:0.00133333" />
      <path
         id="path6"
         d="m 0.44916771,0.97264762 c 0,0.0515999 -0.0417999,0.0933331 -0.0933331,0.0933331 -0.0515599,0 -0.0933331,-0.041733 -0.0933331,-0.0933331 0,-0.0514665 0.0417732,-0.0933331 0.0933331,-0.0933331 0.0515332,0 0.0933331,0.0418666 0.0933331,0.0933331"
         style="fill:#ffffff;fill-opacity:1;fill-rule:nonzero;stroke:#ffffff;stroke-width:0.00133333;stroke-opacity:1" />
      <path
         id="path7"
         d="m 1.3795254,1.0659807 c 0,0.1399997 0.113413,0.2533327 0.2533327,0.2533327 0.1399063,0 0.2533327,-0.113333 0.2533327,-0.2533327 0,-0.1398663 -0.1134264,-0.25333268 -0.2533327,-0.25333268 -0.1399197,0 -0.2533327,0.11346638 -0.2533327,0.25333268"
         style="fill:#000000;fill-opacity:0.901961;fill-rule:nonzero;stroke:none;stroke-width:0.00133333" />
      <path
         id="path8"
         d="m 1.7071379,0.31838258 c -0.280946,0 -0.5095187,0.28626596 -0.5095187,0.63813174 0,0.35186578 0.2285727,0.63799838 0.5095187,0.63799838 0.2809593,0 0.5095321,-0.2861326 0.5095321,-0.63799838 0,-0.35186579 -0.2285728,-0.63813174 -0.5095321,-0.63813174 z m 0,1.34279662 c -0.3177059,0 -0.5761852,-0.3161325 -0.5761852,-0.70466488 0,-0.38866569 0.2584793,-0.70479824 0.5761852,-0.70479824 0.3177192,0 0.5761986,0.31613255 0.5761986,0.70479824 0,0.38853238 -0.2584794,0.70466488 -0.5761986,0.70466488"
         style="fill:#000000;fill-opacity:0.901961;fill-rule:nonzero;stroke:none;stroke-width:0.00133333" />
      <path
         id="path9"
         d="M 1.8778575,-0.04414984 C 1.8085643,-0.09188306 1.7324312,-0.1276163 1.653658,-0.14974958 c -0.07876,-0.0223999 -0.1601462,-0.0309332 -0.2397727,-0.0263999 -0.03688,0.002 -0.068466,-0.0262666 -0.070533,-0.0630665 -0.00207,-0.0369332 0.026173,-0.0685332 0.063053,-0.0705332 0.00336,-2.6666e-4 0.00668,-1.3333e-4 0.00993,1.3333e-4 l 0.0012,1.3334e-4 c 0.09372,0.0092 0.1849329,0.0337332 0.268666,0.0721331 0.083827,0.0382666 0.1600129,0.0901331 0.2253461,0.15173295 0.010773,0.01013331 0.011267,0.0270666 0.00111,0.03786658 -0.0092,0.0097333 -0.023973,0.01106663 -0.03468,0.0036 h -1.2e-4"
         style="fill:#000000;fill-opacity:0.901961;fill-rule:nonzero;stroke:none;stroke-width:0.00133333" />
      <path
         id="path10-3"
         d="m -0.05016438,-0.08561641 c 0.06533317,-0.06159984 0.14151965,-0.11346638 0.22534611,-0.15173295 0.0837331,-0.0383999 0.17494622,-0.0629332 0.26866599,-0.0721331 l 8.2667e-4,-1.3334e-4 c 0.0367732,-0.0036 0.0695198,0.0233333 0.0731465,0.0599999 0.003613,0.0367999 -0.0232533,0.0695998 -0.0600132,0.0731998 -0.003347,2.6667e-4 -0.00704,4e-4 -0.0103066,2.6667e-4 -0.0796265,-0.004533 -0.16101293,0.004 -0.2397594,0.0263999 -0.0787865,0.0221333 -0.15491961,0.05786652 -0.22421277,0.10559974 h -1.2e-4 c -0.01218663,0.0084 -0.02886659,0.0053333 -0.03725324,-0.0068 -0.0076,-0.01106663 -0.0057866,-0.0258666 0.00368,-0.03466658"
         style="fill:#000000;fill-opacity:0.901961;fill-rule:nonzero;stroke:none;stroke-width:0.00133333" />
      <path
         id="path11"
         d="m 1.4641518,0.97264762 c 0,0.0515999 0.041787,0.0933331 0.093333,0.0933331 0.051547,0 0.093333,-0.041733 0.093333,-0.0933331 0,-0.0514665 -0.041786,-0.0933331 -0.093333,-0.0933331 -0.051546,0 -0.093333,0.0418666 -0.093333,0.0933331"
         style="fill:#ffffff;fill-opacity:1;fill-rule:nonzero;stroke:#ffffff;stroke-width:0.00133333;stroke-opacity:1" />
      <path
         id="path12-8"
         d="m 1.0103663,2.5229104 c -0.41731895,0 -0.80107799,-0.2413327 -0.98285087,-0.6205318 -0.00796,-0.016667 -9.6e-4,-0.036533 0.01563996,-0.044533 0.01661329,-0.00787 0.03651991,-9.333e-4 0.04446655,0.0156 0.1742129,0.3634657 0.54583864,0.5923985 0.94697096,0.5825318 0.3913724,-0.00933 0.7482248,-0.2471993 0.9090911,-0.6061318 0.00753,-0.0168 0.02724,-0.024267 0.04404,-0.0168 0.016813,0.0076 0.02432,0.0272 0.016787,0.044 -0.1713196,0.3822657 -0.551412,0.6355984 -0.9683309,0.6455983 -0.0086,1.334e-4 -0.01724,2.667e-4 -0.025813,2.667e-4"
         style="fill:#000000;fill-opacity:0.901961;fill-rule:nonzero;stroke:none;stroke-width:0.00133333" />
      <path
         id="path13"
         d="M 0.81227347,2.68211 0.9206332,2.6815767 c 0.0358399,-5.334e-4 0.0715331,-0.00173 0.1071597,-0.00387 0.03564,-0.00187 0.071187,-0.0052 0.1067731,-0.00907 0.0356,-0.00387 0.071147,-0.0088 0.1072264,-0.0132 h 8e-5 c 0.00841,-0.00107 0.01608,0.00493 0.01712,0.013333 8.667e-4,0.00707 -0.00324,0.0136 -0.00956,0.016133 -0.034693,0.013867 -0.070827,0.023867 -0.1074664,0.0312 -0.036627,0.00747 -0.07388,0.011867 -0.1112397,0.014 -0.03736,0.002 -0.0748665,0.00133 -0.11206643,-0.00227 -0.0371866,-0.0036 -0.0741198,-0.01 -0.10995973,-0.020667 -0.006787,-0.002 -0.0106666,-0.00907 -0.008653,-0.015867 0.001627,-0.0056 0.00672,-0.0092 0.0122266,-0.0092"
         style="fill:#000000;fill-opacity:0.901961;fill-rule:nonzero;stroke:none;stroke-width:0.00133333" />
      <path
         id="path14"
         d="m -0.03633775,1.9754451 c -0.0057333,0 -0.01154663,-0.00147 -0.01683995,-0.00453 -0.01587996,-0.00933 -0.02119995,-0.029733 -0.01187997,-0.0456 0.01719995,-0.029333 0.0387599,-0.055467 0.0640665026,-0.077867 0.0363199074,-0.031867 0.0805731274,-0.0556 0.1280130174,-0.068533 0.0177333,-0.0048 0.0360666,0.0056 0.0409066,0.023333 0.00484,0.017867 -0.00564,0.036133 -0.0234133,0.040933 -0.0376532,0.010267 -0.07273316,0.029067 -0.10143975,0.0544 -0.01998662,0.0176 -0.03702658,0.038267 -0.05063987,0.061467 -0.00619999,0.010533 -0.01733329,0.0164 -0.02877327,0.0164"
         style="fill:#000000;fill-opacity:0.85098;fill-rule:nonzero;stroke:none;stroke-width:0.00133333" />
      <path
         id="path15"
         d="m 2.0424837,1.9747784 c -0.01404,0 -0.027093,-0.00893 -0.03168,-0.022933 -0.00828,-0.025467 -0.025667,-0.0624 -0.06144,-0.094133 -0.024027,-0.021333 -0.053253,-0.037333 -0.084507,-0.046133 -0.01772,-0.00493 -0.02804,-0.023333 -0.023067,-0.041067 0.00499,-0.017733 0.023413,-0.028 0.04112,-0.023067 0.040907,0.011467 0.0792,0.0324 0.110733,0.0604 0.046933,0.041733 0.069707,0.090133 0.080547,0.1233331 0.00569,0.017467 -0.00385,0.036266 -0.02136,0.042 -0.00344,0.00107 -0.00692,0.0016 -0.010347,0.0016"
         style="fill:#000000;fill-opacity:0.85098;fill-rule:nonzero;stroke:none;stroke-width:0.00133333" />
    </g>
  </g>
</svg>
