<?xml version="1.0" encoding="UTF-8" standalone="no"?>
<!-- Created with Inkscape (http://www.inkscape.org/) -->

<svg
   width="222.77309"
   height="214.64098"
   viewBox="0 0 2.2255055 2.1442656"
   version="1.1"
   id="svg1"
   inkscape:export-filename="cara02.svg"
   inkscape:export-xdpi="27.965658"
   inkscape:export-ydpi="27.965658"
   sodipodi:docname="cara02.svg"
   inkscape:version="1.3 (0e150ed, 2023-07-21)"
   xmlns:inkscape="http://www.inkscape.org/namespaces/inkscape"
   xmlns:sodipodi="http://sodipodi.sourceforge.net/DTD/sodipodi-0.dtd"
   xmlns="http://www.w3.org/2000/svg"
   xmlns:svg="http://www.w3.org/2000/svg">
  <sodipodi:namedview
     id="namedview1"
     pagecolor="#ffffff"
     bordercolor="#cccccc"
     borderopacity="1"
     inkscape:showpageshadow="0"
     inkscape:pageopacity="1"
     inkscape:pagecheckerboard="0"
     inkscape:deskcolor="#d1d1d1"
     inkscape:document-units="mm"
     inkscape:export-bgcolor="#ffffff00"
     inkscape:clip-to-page="true"
     inkscape:zoom="3.0414327"
     inkscape:cx="39.126297"
     inkscape:cy="125.92749"
     inkscape:window-width="1920"
     inkscape:window-height="1027"
     inkscape:window-x="0"
     inkscape:window-y="25"
     inkscape:window-maximized="0"
     inkscape:current-layer="layer1" />
  <defs
     id="defs1">
    <linearGradient
       id="swatch13"
       inkscape:swatch="solid">
      <stop
         style="stop-color:#000000;stop-opacity:0.19209002;"
         offset="0"
         id="stop13" />
    </linearGradient>
    <inkscape:path-effect
       effect="gears"
       id="path-effect13"
       is_visible="false"
       lpeversion="1"
       teeth="10"
       phi="5"
       min_radius="5" />
    <inkscape:path-effect
       effect="slice"
       start_point="1.2032914,0.20086628"
       end_point="1.2032914,2.1507537"
       center_point="1.2032914,1.17581"
       id="path-effect12"
       is_visible="false"
       lpeversion="1.2"
       lpesatellites=""
       allow_transforms="true" />
    <inkscape:path-effect
       effect="sketch"
       id="path-effect11"
       is_visible="false"
       lpeversion="1"
       nbiter_approxstrokes="2"
       parallel_offset="4.5;2139095038"
       strokelength="100"
       strokelength_rdm="0.3;1"
       strokeoverlap="0.071428571"
       strokeoverlap_rdm="0.3;1"
       ends_tolerance="0.1;1"
       tremble_size="5;1"
       tremble_frequency="1"
       nbtangents="5"
       tgt_places_rdmness="1;1"
       tgtlength="80"
       tgtlength_rdm="0.3;1"
       tgtscale="10" />
    <inkscape:path-effect
       effect="knot"
       id="path-effect10"
       is_visible="false"
       lpeversion="1"
       switcher_size="15"
       interruption_width="3"
       prop_to_stroke_width="true"
       add_stroke_width="inkscape_1.0_and_up"
       both="false"
       inverse_width="false"
       add_other_stroke_width="inkscape_1.0_and_up"
       crossing_points_vector="" />
  </defs>
  <g
     inkscape:label="Capa 1"
     inkscape:groupmode="layer"
     id="layer1"
     style="display:inline"
     transform="translate(-0.11996234,-0.13310085)">
    <g
       id="g13"
       transform="matrix(0.50157528,0,0,0.47391845,0.7164921,0.67572628)"
       style="display:inline;fill:#ffa268;fill-opacity:0.901961"
       inkscape:label="cara02">
      <path
         style="display:inline;opacity:0.9;fill:#ffffff;fill-opacity:1;stroke:#ffb86e;stroke-width:0.04;stroke-linecap:round;stroke-linejoin:round;stroke-dasharray:none;stroke-opacity:1"
         id="path10"
         d="M 2.2057165,1.17581 A 1.0024251,0.9749437 0 0 1 1.2032914,2.1507537 1.0024251,0.9749437 0 0 1 0.20086634,1.17581 1.0024251,0.9749437 0 0 1 1.2032914,0.20086628 1.0024251,0.9749437 0 0 1 2.2057165,1.17581 Z"
         sodipodi:type="arc"
         sodipodi:ry="0.9749437"
         sodipodi:rx="1.0024251"
         sodipodi:cy="1.17581"
         sodipodi:cx="1.2032914"
         inkscape:path-effect="#path-effect10;#path-effect11;#path-effect12;#path-effect13"
         transform="matrix(1.9937187,0,0,2.1100677,-1.366547,-1.360277)" />
      <g
         id="g37"
         transform="translate(-3.1794152,0.84123971)">
        <path
           id="path279"
           d="m 4.9190599,-0.5918244 c -0.019333,0 -0.0384,0.001733 -0.0572,0.0052 -0.2041328,0.0370666 -0.3074659,0.25199937 -0.3507991,0.37693239 -0.1047997,0.30146591 0.048667,0.58653186 0.1093331,0.68199829 0.1178663,-0.0554665 0.2423994,-0.0937331 0.3706657,-0.11373305 0.1597329,-0.0250666 0.3209325,-0.0214666 0.4798655,0.0102666 0.0256,-0.12106636 0.072667,-0.4666655 -0.1462663,-0.72519818 C 5.1946592,-0.50995794 5.0526596,-0.5918244 4.9190599,-0.5918244 Z M 4.608794,0.54830608 c -0.010667,0 -0.021067,-0.005067 -0.027467,-0.0142666 -0.0444,-0.0639998 -0.2597327,-0.40186566 -0.1331997,-0.76573142 0.048133,-0.13853299 0.1643996,-0.37746572 0.4017324,-0.42053228 0.1742662,-0.0317333 0.3607991,0.0581332 0.5255987,0.25266603 0.2639993,0.31186589 0.1737329,0.7345315 0.1529329,0.8161313 -0.0044,0.0174666 -0.022,0.0282666 -0.0396,0.0242666 -0.1613329,-0.0362666 -0.3253325,-0.0418666 -0.4873321,-0.0164 -0.1311997,0.0205333 -0.2583994,0.0610665 -0.3778657,0.1203997 -0.0048,0.0024 -0.00987,0.003467 -0.0148,0.003467"
           style="fill:#1d1d1b;fill-opacity:1;fill-rule:nonzero;stroke:none;stroke-width:0.00133333" />
        <path
           id="path280"
           d="m 4.9689264,0.2336402 c 0,0.12066637 -0.097866,0.21866612 -0.2186661,0.21866612 -0.1206663,0 -0.2186661,-0.0979997 -0.2186661,-0.21866612 0,-0.1207997 0.098,-0.21866612 0.2186661,-0.21866612 0.1207997,0 0.2186661,0.09786642 0.2186661,0.21866612"
           style="fill:#1d1d1b;fill-opacity:1;fill-rule:nonzero;stroke:none;stroke-width:0.00133333" />
        <path
           id="path281"
           d="m 4.87866,0.13497378 c 0,0.0441332 -0.035733,0.0799998 -0.08,0.0799998 -0.044133,0 -0.08,-0.0358666 -0.08,-0.0799998 0,-0.04426656 0.035867,-0.0799998 0.08,-0.0799998 0.044267,0 0.08,0.03573324 0.08,0.0799998"
           style="fill:#ffffff;fill-opacity:1;fill-rule:nonzero;stroke:none;stroke-width:0.00133333" />
        <path
           id="path282"
           d="m 3.2042642,0.41217309 c 0.0704,0 0.1407996,0.005467 0.2109328,0.0164 0.1282663,0.0201333 0.2527994,0.0582665 0.3706657,0.11386638 C 3.8465292,0.44683967 3.9999955,0.16190705 3.8951958,-0.1396922 3.8517292,-0.26449189 3.7485295,-0.47955802 3.5443967,-0.51662459 3.3946637,-0.54382452 3.2302641,-0.46209139 3.0815978,-0.2863585 2.862665,-0.02769248 2.9097316,0.31777332 2.9351982,0.43897302 c 0.0892,-0.0178666 0.1791995,-0.0267999 0.269066,-0.0267999 z m 0.5931985,0.20626615 c -0.00493,0 -0.01,-0.0012 -0.0148,-0.003467 -0.1194663,-0.0594665 -0.246666,-0.0999997 -0.3778657,-0.12053303 -0.1621329,-0.0253333 -0.3261325,-0.0198666 -0.4873321,0.0164 -0.0176,0.004 -0.0352,-0.0068 -0.0396,-0.0242666 -0.0208,-0.0815998 -0.1110664,-0.5042654 0.1527996,-0.81599796 0.1647996,-0.19466618 0.3514658,-0.28439929 0.525732,-0.25279937 0.2373328,0.0431999 0.3535992,0.28213263 0.4017324,0.42066562 0.126533,0.36386576 -0.0888,0.70159825 -0.1331997,0.76559809 -0.00653,0.009333 -0.0168,0.0144 -0.027467,0.0144"
           style="fill:#1d1d1b;fill-opacity:1;fill-rule:nonzero;stroke:none;stroke-width:0.00133333" />
        <path
           id="path283"
           d="m 3.4373303,0.30364003 c 0,0.12079969 0.097866,0.21866612 0.2186661,0.21866612 0.1206664,0 0.2186661,-0.0978664 0.2186661,-0.21866612 0,-0.1207997 -0.098,-0.21866612 -0.2186661,-0.21866612 -0.1207997,0 -0.2186661,0.09786642 -0.2186661,0.21866612"
           style="fill:#1d1d1b;fill-opacity:1;fill-rule:nonzero;stroke:none;stroke-width:0.00133333" />
        <path
           id="path284"
           d="m 3.5274634,0.20497361 c 0,0.0442665 0.035867,0.0799998 0.08,0.0799998 0.044266,0 0.08,-0.0357332 0.08,-0.0799998 0,-0.0441332 -0.035733,-0.0799998 -0.08,-0.0799998 -0.044133,0 -0.08,0.0358666 -0.08,0.0799998"
           style="fill:#ffffff;fill-opacity:1;fill-rule:nonzero;stroke:none;stroke-width:0.00133333" />
        <path
           id="path285"
           d="m 3.7926627,-1.01969 c -0.086133,0.0227999 -0.1693329,0.0594665 -0.2449327,0.10853306 -0.075867,0.0489332 -0.1442663,0.11039973 -0.2018662,0.18133288 v 0 c -0.0116,0.0144 -0.032667,0.0165333 -0.046933,0.004933 -0.0136,-0.0110666 -0.016133,-0.0307999 -0.0064,-0.0449332 0.056267,-0.0806665 0.1254664,-0.15293295 0.2047995,-0.2129328 C 3.5766633,-1.0427569 3.6658632,-1.0903568 3.7609297,-1.12329 h 1.333e-4 c 0.028267,-0.00973 0.0592,0.0052 0.068933,0.033466 0.00973,0.028267 -0.0052,0.0592 -0.033467,0.068933 -0.00133,4e-4 -0.00267,8e-4 -0.00387,0.0012"
           style="fill:#1d1d1b;fill-opacity:1;fill-rule:nonzero;stroke:none;stroke-width:0.00133333" />
        <path
           id="path286"
           d="m 4.5926607,-1.1962229 c 0.131333,0.041867 0.256266,0.1010664 0.3703991,0.1755996 0.114133,0.0741331 0.2173328,0.16359956 0.3063992,0.26426598 0.00587,0.006533 0.0052,0.0165333 -0.00133,0.0223999 -0.00613,0.005333 -0.015333,0.005067 -0.021333,-4e-4 C 5.150526,-0.82409049 5.0429263,-0.90035696 4.9275932,-0.96035681 4.8125268,-1.02049 4.6899938,-1.0646232 4.5645274,-1.0916898 c -0.0292,-0.00627 -0.047867,-0.0352 -0.041467,-0.0644 0.00627,-0.029333 0.0352,-0.047866 0.0644,-0.0416 0.00173,4e-4 0.00333,8e-4 0.00493,0.00133 l 2.667e-4,1.333e-4"
           style="fill:#1d1d1b;fill-opacity:1;fill-rule:nonzero;stroke:none;stroke-width:0.00133333" />
        <path
           id="path287"
           d="m 2.607999,1.0639048 c -8e-4,0 -0.0016,-1.333e-4 -0.00253,-1.333e-4 -0.018267,-0.00147 -0.032133,-0.017333 -0.030667,-0.035733 0.00427,-0.0573332 0.022267,-0.14239963 0.083866,-0.22173276 0.028667,-0.0370666 0.063467,-0.0686665 0.1037331,-0.0938664 0.015467,-0.009867 0.036133,-0.0052 0.046,0.0104 0.00973,0.0156 0.00507,0.0361332 -0.010533,0.0459999 -0.0336,0.0210666 -0.062666,0.0474665 -0.086533,0.0782665 -0.051333,0.0662665 -0.066533,0.13773299 -0.070133,0.18586616 -0.00133,0.0176 -0.015867,0.030933 -0.0332,0.030933"
           style="fill:#1d1d1b;fill-opacity:1;fill-rule:nonzero;stroke:none;stroke-width:0.00133333" />
        <path
           id="path288"
           d="m 5.7519911,0.90977184 c -1.333e-4,0 -2.666e-4,0 -4e-4,0 -0.0184,-1.3333e-4 -0.0332,-0.0152 -0.032933,-0.0335999 2.667e-4,-0.0298666 -0.00547,-0.0878665 -0.047467,-0.14239965 -0.038667,-0.0502665 -0.088533,-0.0710665 -0.1146663,-0.0790665 -0.0176,-0.005333 -0.0276,-0.0239999 -0.022267,-0.0415999 0.00547,-0.0176 0.024,-0.0274666 0.0416,-0.0221333 0.033867,0.0102666 0.098133,0.0371999 0.1481329,0.10213308 0.054266,0.0703998 0.061733,0.14533297 0.061333,0.18373287 -2.667e-4,0.0182666 -0.015067,0.0329333 -0.033333,0.0329333"
           style="fill:#1d1d1b;fill-opacity:1;fill-rule:nonzero;stroke:none;stroke-width:0.00133333" />
        <path
           id="path289"
           d="M 5.1675926,1.125638 C 4.5553275,1.5984368 4.5139942,1.7733697 4.2795948,1.7824363 4.0379954,1.791903 3.9506623,1.6112368 3.4370636,1.2751043 2.9859981,0.98003833 2.6525322,0.89097189 2.6655989,0.85443865 2.6833322,0.80457211 3.2495974,1.111238 4.0039955,1.1263046 c 0.078,0.00173 0.1578663,1.334e-4 0.2394661,-0.0052 0.022133,-0.00147 0.044133,-0.0032 0.065867,-0.0052 0.00667,-5.334e-4 0.013467,-0.0012 0.020133,-0.00187 0.1059997,-0.010267 0.2079994,-0.0264 0.3051992,-0.0464 C 5.2494591,0.94137176 5.671058,0.66083913 5.6975913,0.71337233 5.7153246,0.74870558 5.5157251,0.85670531 5.1675926,1.125638"
           style="fill:#1d1d1b;fill-opacity:1;fill-rule:nonzero;stroke:none;stroke-width:0.00133333" />
        <path
           id="path290"
           d="m 4.6346606,1.0676381 v 0.3065326 c 0,0.086266 -0.069866,0.1561329 -0.1559996,0.1561329 H 4.3294614 V 1.114038 c 0.1059997,-0.010267 0.2079994,-0.0264 0.3051992,-0.0464"
           style="fill:#ffffff;fill-opacity:1;fill-rule:nonzero;stroke:none;stroke-width:0.00133333" />
        <path
           id="path291"
           d="M 4.3093281,1.1159047 V 1.5303036 H 4.1601285 c -0.086266,0 -0.156133,-0.069867 -0.156133,-0.1561329 V 1.1263046 c 0.078,0.00173 0.1578663,1.334e-4 0.2394661,-0.0052 0.022133,-0.00147 0.044133,-0.0032 0.065867,-0.0052"
           style="fill:#ffffff;fill-opacity:1;fill-rule:nonzero;stroke:none;stroke-width:0.00133333" />
      </g>
    </g>
  </g>
</svg>
